<svg width="32" height="32" viewBox="0 0 32 32" fill="none" xmlns="http://www.w3.org/2000/svg">
  <!-- Dark background -->
  <rect width="32" height="32" rx="6" fill="#0f172a"/>

  <!-- Subtle gradient overlay -->
  <rect width="32" height="32" rx="6" fill="url(#bgGradient)" opacity="0.4"/>

  <!-- Icon bars centered -->
  <g transform="translate(16, 20)">
    <!-- Bar 1 - tallest -->
    <rect x="-7" y="-12" width="2" height="12" rx="1" fill="url(#bar1)"/>

    <!-- Bar 2 - short -->
    <rect x="-3" y="-7" width="2" height="7" rx="1" fill="url(#bar2)"/>

    <!-- Bar 3 - medium -->
    <rect x="1" y="-10" width="2" height="10" rx="1" fill="url(#bar3)"/>

    <!-- Bar 4 - Book spine -->
    <g transform="skewX(8) translate(0, -1)">
      <rect x="5" y="-6" width="2.5" height="6" rx="0.3" fill="url(#bookSpine)"/>
      <!-- Page line -->
      <rect x="5" y="-3.5" width="2.5" height="0.5" fill="#000000" opacity="0.1"/>
      <!-- Spine highlight -->
      <rect x="5" y="-6" width="0.5" height="6" fill="#ffffff" opacity="0.15"/>
    </g>
  </g>

  <!-- Gradient definitions -->
  <defs>
    <linearGradient id="bgGradient" x1="0" y1="0" x2="32" y2="32">
      <stop offset="0%" stop-color="#4f46e5" stop-opacity="0.1"/>
      <stop offset="100%" stop-color="#7c3aed" stop-opacity="0.1"/>
    </linearGradient>

    <linearGradient id="bar1" x1="0" y1="0" x2="0" y2="12">
      <stop offset="0%" stop-color="#ffffff" stop-opacity="0.9"/>
      <stop offset="100%" stop-color="#ffffff" stop-opacity="0.3"/>
    </linearGradient>

    <linearGradient id="bar2" x1="0" y1="0" x2="0" y2="7">
      <stop offset="0%" stop-color="#ffffff" stop-opacity="0.7"/>
      <stop offset="100%" stop-color="#ffffff" stop-opacity="0.25"/>
    </linearGradient>

    <linearGradient id="bar3" x1="0" y1="0" x2="0" y2="10">
      <stop offset="0%" stop-color="#ffffff" stop-opacity="0.8"/>
      <stop offset="100%" stop-color="#ffffff" stop-opacity="0.28"/>
    </linearGradient>

    <linearGradient id="bookSpine" x1="0" y1="0" x2="2.5" y2="0">
      <stop offset="0%" stop-color="#ffffff" stop-opacity="0.4"/>
      <stop offset="50%" stop-color="#ffffff" stop-opacity="0.75"/>
      <stop offset="100%" stop-color="#ffffff" stop-opacity="0.5"/>
    </linearGradient>
  </defs>
</svg>